# xmcd
#
# Track frame offsets:
#	150
#	14694
#	28235
#	44761
#	64083
#	81650
#	97000
#	114081
#	135746
#	152672
#	166316
#	180868
#	198559
#	215493
#	235200
#	258376
#	274524
#
# Disc length: 3881
#
# Revision: 4
# Processed by: cddbd v1.5.2PL0 Copyright (c) Steve Scherf et al.
# Submitted via: kJams Pro (development) 1.0patch50.7
#
DISCID=f20f2711
DTITLE=CHARTBUSTER KARAOKE - 2008 COUNTRY HITS 5122-01
DYEAR=2008
DGENRE=Country
TTITLE0=Big and Rich - Loud
TTITLE1=Kenny Chesney - Everybody Wants To Go To Heaven
TTITLE2=Ashton Shepherd - Sounds So Good
TTITLE3=Alan Jackson - Country Boy
TTITLE4=Tim McGraw - Let it Go
TTITLE5=Gretchen Wilson - Don't Do Me No Good
TTITLE6=Phil Vassar - I Would
TTITLE7=Brad Paisley - Waitin' On A Woman
TTITLE8=Heidi Newfield - Johnny And June
TTITLE9=George Strait - Troubadour
TTITLE10=Chris Young - Voices
TTITLE11=Taylor Swift - Should've Said No
TTITLE12=Blake Shelton - She Wouldn't Be Gone
TTITLE13=Jamey Johnson - In Color
TTITLE14=Carrie Underwood - Just A Dream
TTITLE15=Jimmy Wayne - Do You Believe Me Now
TTITLE16=Bucky Covington - I'll Walk
EXTD=DISC 1 OF 3 DISC SET MediaType: Karaoke CD+G Producer: chartbuster
EXTT0=
EXTT1=
EXTT2=
EXTT3=
EXTT4=
EXTT5=
EXTT6=
EXTT7=
EXTT8=
EXTT9=
EXTT10=
EXTT11=
EXTT12=
EXTT13=
EXTT14=
EXTT15=
EXTT16=
PLAYORDER=
